<svg width="46" height="45" viewBox="0 0 46 45" fill="none" xmlns="http://www.w3.org/2000/svg">
<g clip-path="url(#clip0_610_1815)">
<path d="M40.5781 39.3752H39.7084L37.7094 32.0937C39.392 31.5248 40.5781 29.9301 40.5781 28.1252C40.5781 26.1677 39.1909 24.4422 37.2791 24.0218L35.3785 23.6034L31.0227 7.73459H40.5781C40.7645 7.73459 40.9438 7.66076 41.0752 7.52857L42.833 5.77076C43.6888 4.91506 43.6888 3.52287 42.833 2.66717C41.9773 1.81146 40.5852 1.81146 39.7295 2.66717L38.8808 3.51584H29.3281C29.1087 3.51584 28.902 3.6185 28.7691 3.79287C28.6363 3.96725 28.5927 4.19365 28.6503 4.40529L30.6669 11.7515L22.3538 20.7382L15.1707 19.1576C14.4507 18.9994 13.7258 18.934 13.0072 18.948L11.9933 15.2552C12.7984 14.9824 13.5043 14.4565 13.9902 13.728L14.2355 13.3596H16.6719C17.8348 13.3596 18.7812 12.4132 18.7812 11.2502C18.7812 10.0872 17.8348 9.14084 16.6719 9.14084H7.53125C7.14313 9.14084 6.82812 9.45584 6.82812 9.84396V11.5596C6.82812 13.6654 8.50367 15.3839 10.5913 15.4612L11.589 19.095C10.0934 19.3608 8.6675 19.9858 7.44477 20.9681C5.26578 22.7203 4.01562 25.3289 4.01562 28.1252C4.01562 30.9215 5.26578 33.5301 7.44477 35.2816C7.72742 35.5087 8.02484 35.7112 8.32789 35.9011L5.08297 39.409C3.30547 39.5833 1.90625 41.0683 1.90625 42.8908C1.90625 43.279 2.22125 43.594 2.60938 43.594H13.8594C14.2475 43.594 14.5625 43.279 14.5625 42.8908C14.5625 40.9523 12.9854 39.3752 11.0469 39.3752H7.02992L9.61742 36.5775C10.7438 37.0563 11.9525 37.3094 13.1809 37.3094C13.8418 37.3094 14.5084 37.2377 15.17 37.0922L36.3439 32.434L38.2494 39.3752H37.7656C35.8271 39.3752 34.25 40.9523 34.25 42.8908C34.25 43.279 34.565 43.594 34.9531 43.594H43.3906C43.7788 43.594 44.0938 43.279 44.0938 42.8908C44.0938 40.9523 42.5166 39.3752 40.5781 39.3752ZM8.23438 11.5596V10.5471H16.6719C17.0593 10.5471 17.375 10.8628 17.375 11.2502C17.375 11.6376 17.0593 11.9533 16.6719 11.9533H13.8594C13.6245 11.9533 13.4052 12.0708 13.2744 12.2662L12.8202 12.9483C12.3547 13.6465 11.5756 14.0627 10.7375 14.0627C9.35727 14.0627 8.23438 12.9398 8.23438 11.5596ZM13.036 42.1877H3.43273C3.72312 41.3693 4.505 40.7815 5.42188 40.7815H11.0469C11.9637 40.7815 12.7456 41.3693 13.036 42.1877ZM30.2506 4.92209H39.1719C39.3582 4.92209 39.5375 4.84826 39.669 4.71607L40.7237 3.66139C41.0316 3.35342 41.5309 3.35342 41.8388 3.66139C42.1461 3.96936 42.1461 4.46857 41.8388 4.77654L40.287 6.32834H30.6359L30.2506 4.92209ZM31.1049 13.3483L33.8267 23.2624L23.945 21.0883L31.1049 13.3483ZM14.8684 35.719C12.5551 36.228 10.1715 35.669 8.32578 34.1854C6.48008 32.7019 5.42188 30.4933 5.42188 28.1252C5.42188 25.7571 6.48008 23.5486 8.32578 22.065C9.7243 20.9407 11.4322 20.3479 13.1837 20.3479C13.7434 20.3479 14.308 20.4084 14.8684 20.5315L36.9774 25.395C38.2487 25.6748 39.1719 26.823 39.1719 28.1252C39.1719 29.4274 38.2487 30.5756 36.9767 30.8554L14.8684 35.719ZM35.7765 42.1877C36.0669 41.3693 36.8488 40.7815 37.7656 40.7815H40.5781C41.495 40.7815 42.2769 41.3693 42.5673 42.1877H35.7765Z" fill="#222222"/>
<circle cx="13" cy="28" r="4" fill="#246EB8"/>
<ellipse cx="32" cy="28" rx="3" ry="1" fill="#246EB8"/>
<path d="M33.5469 26.0156H30.7344C29.5714 26.0156 28.625 26.962 28.625 28.125C28.625 29.288 29.5714 30.2344 30.7344 30.2344H33.5469C34.7098 30.2344 35.6562 29.288 35.6562 28.125C35.6562 26.962 34.7098 26.0156 33.5469 26.0156ZM33.5469 28.8281H30.7344C30.347 28.8281 30.0312 28.5124 30.0312 28.125C30.0312 27.7376 30.347 27.4219 30.7344 27.4219H33.5469C33.9343 27.4219 34.25 27.7376 34.25 28.125C34.25 28.5124 33.9343 28.8281 33.5469 28.8281Z" fill="#222222"/>
<path d="M19.6742 29.9749L17.9354 29.2795C18.0254 28.9083 18.0781 28.523 18.0781 28.125C18.0781 25.4109 15.8703 23.2031 13.1562 23.2031C10.4422 23.2031 8.23438 25.4109 8.23438 28.125C8.23438 30.8391 10.4422 33.0469 13.1562 33.0469C14.9738 33.0469 16.5601 32.0541 17.413 30.5852L19.1525 31.2813L18.8319 32.0829L20.1376 32.6053L21.5438 29.0897L20.2381 28.5673L19.6742 29.9749ZM13.1562 31.6406C11.2177 31.6406 9.64062 30.0635 9.64062 28.125C9.64062 26.1865 11.2177 24.6094 13.1562 24.6094C15.0948 24.6094 16.6719 26.1865 16.6719 28.125C16.6719 28.3387 16.6452 28.5455 16.6086 28.7487L13.4171 27.4725L12.8947 28.7782L16.0883 30.0558C15.4597 31.0085 14.3811 31.6406 13.1562 31.6406Z" fill="#222222"/>
</g>
<defs>
<clipPath id="clip0_610_1815">
<rect width="45" height="45" fill="white" transform="translate(0.5)"/>
</clipPath>
</defs>
</svg>
