<svg width="45" height="45" viewBox="0 0 45 45" fill="none" xmlns="http://www.w3.org/2000/svg">
<path d="M28.3912 5.0654L27.0526 5.06373C27.0701 4.90474 27.078 4.74302 27.078 4.57787C27.078 2.04961 25.0284 0 22.4998 0C19.9712 0 17.9219 2.04961 17.9219 4.57787C17.9219 4.73924 17.9302 4.89718 17.9467 5.05301C17.9467 5.05714 17.9471 5.06092 17.9471 5.0654H4.28551V7.59779L4.28516 44.8689V44.9863V45H33.0481L35.9272 42.0783L37.7913 40.1867L40.7137 37.2218V8.37712L40.7141 5.0654H28.3912ZM22.4998 2.92236C23.4137 2.92236 24.1556 3.6646 24.1556 4.57778C24.1556 4.74741 24.1305 4.91089 24.0835 5.06531C23.8734 5.74304 23.2441 6.23399 22.4998 6.23399C21.7558 6.23399 21.1264 5.74304 20.916 5.06531C20.8693 4.9108 20.8439 4.74741 20.8439 4.57778C20.8439 3.6646 21.5863 2.92236 22.4998 2.92236ZM37.7913 35.7217V35.7846H31.6112V42.0728V42.0783H7.20717V10.5194H37.7913V35.7217Z" fill="#555555"/>
<path d="M10.1507 29.5315H13.1136V26.5254H10.1507V29.5085L10.1504 29.5177H10.1507V29.5315Z" fill="#246EB8"/>
<path d="M17.3965 29.5085V29.5177V29.5315H20.3594V26.5254H17.3965V29.5085Z" fill="#246EB8"/>
<path d="M24.6406 29.5085V29.5177V29.5315H27.6035V26.5254H24.6406V29.5085Z" fill="#246EB8"/>
<path d="M34.8495 26.5254H31.8867V29.5085V29.5177V29.5315H34.8495V26.5254Z" fill="#246EB8"/>
<path d="M10.1507 36.5742H13.1136V33.5674H10.1507V36.5508L10.1504 36.5598H10.1507V36.5742Z" fill="#246EB8"/>
<path d="M17.3965 36.5508V36.5598V36.5742H20.3594V33.5674H17.3965V36.5508Z" fill="#246EB8"/>
<path d="M24.6406 36.5508V36.5598V36.5742H27.6035V33.5674H24.6406V36.5508Z" fill="#246EB8"/>
<path d="M17.1713 16.9378L18.1439 16.0932L18.7687 15.562V21.5864V21.6049V21.6186H20.5905V13.3857H18.8907L17.1713 14.8799V16.1104L17.1621 16.9275L17.1713 16.9192V16.9378Z" fill="#246EB8"/>
<path d="M27.8281 19.9407H26.1211L25.0362 19.9317L26.9437 17.7173C27.0779 17.5607 27.1991 17.4137 27.3073 17.2757C27.4216 17.1295 27.5173 16.9792 27.5926 16.8294C27.6684 16.6777 27.7271 16.5177 27.7674 16.3529C27.8075 16.1875 27.8281 16 27.8281 15.7947C27.8281 15.4183 27.7636 15.0723 27.6365 14.7668C27.5088 14.4592 27.3279 14.1955 27.0992 13.9833C26.8716 13.7719 26.5956 13.6064 26.2783 13.491C25.9642 13.377 25.6195 13.3193 25.2535 13.3193C24.8951 13.3193 24.5566 13.375 24.2465 13.4847C23.9327 13.596 23.6546 13.7615 23.4201 13.9764C23.184 14.1927 22.9976 14.4577 22.8657 14.7653C22.7345 15.0716 22.668 15.4218 22.668 15.8056V15.9862V16.0006H24.4899V15.8056C24.4899 15.6422 24.5126 15.5069 24.5569 15.4032C24.5995 15.3036 24.6555 15.224 24.7231 15.1677C24.7948 15.1073 24.8724 15.0654 24.961 15.0399C25.0565 15.0118 25.1549 14.998 25.2535 14.998C25.5065 14.998 25.6896 15.0654 25.8137 15.2034C25.9432 15.3475 26.0061 15.5378 26.0061 15.7836C26.0061 15.9388 25.9803 16.0747 25.9295 16.1887C25.8755 16.3103 25.7802 16.4496 25.6456 16.6042L22.668 20.0627V21.6001V21.605V21.6187H27.8281V19.9407Z" fill="#246EB8"/>
</svg>
