<svg width="14" height="12" viewBox="0 0 14 12" fill="none" xmlns="http://www.w3.org/2000/svg">
<path d="M1.5 5.31371C1.12097 5.31371 0.813712 5.62097 0.813712 6C0.813712 6.37903 1.12097 6.68629 1.5 6.68629L1.5 6L1.5 5.31371ZM12.9853 6.48528C13.2533 6.21727 13.2533 5.78273 12.9853 5.51472L8.61777 1.14721C8.34976 0.879202 7.91523 0.879202 7.64721 1.14721C7.3792 1.41523 7.3792 1.84976 7.64721 2.11777L11.5294 6L7.64721 9.88223C7.3792 10.1502 7.3792 10.5848 7.64721 10.8528C7.91523 11.1208 8.34976 11.1208 8.61777 10.8528L12.9853 6.48528ZM1.5 6L1.5 6.68629L12.5 6.68629L12.5 6L12.5 5.31371L1.5 5.31371L1.5 6Z" fill="#222222"/>
</svg>
