<svg width="8" height="9" viewBox="0 0 8 9" fill="none" xmlns="http://www.w3.org/2000/svg">
<path d="M4.46587 0.976562C4.46587 0.719269 4.25729 0.510692 4 0.510692C3.74271 0.510692 3.53413 0.719269 3.53413 0.976563L4 0.976562L4.46587 0.976562ZM3.67058 8.74391C3.85251 8.92584 4.14749 8.92584 4.32942 8.74391L7.2942 5.77913C7.47614 5.59719 7.47614 5.30222 7.2942 5.12029C7.11227 4.93835 6.8173 4.93835 6.63536 5.12029L4 7.75565L1.36464 5.12029C1.1827 4.93835 0.88773 4.93835 0.705796 5.12029C0.523862 5.30222 0.523862 5.59719 0.705796 5.77913L3.67058 8.74391ZM4 0.976562L3.53413 0.976563L3.53413 8.41449L4 8.41449L4.46587 8.41449L4.46587 0.976562L4 0.976562Z" fill="#246EB8"/>
</svg>
