<svg width="14" height="12" viewBox="0 0 14 12" fill="none" xmlns="http://www.w3.org/2000/svg">
<path d="M12.5 6.68629C12.879 6.68629 13.1863 6.37903 13.1863 6C13.1863 5.62097 12.879 5.31371 12.5 5.31371L12.5 6L12.5 6.68629ZM1.01472 5.51472C0.74671 5.78273 0.74671 6.21727 1.01472 6.48528L5.38223 10.8528C5.65024 11.1208 6.08477 11.1208 6.35279 10.8528C6.6208 10.5848 6.6208 10.1502 6.35279 9.88223L2.47056 6L6.35279 2.11777C6.6208 1.84976 6.6208 1.41523 6.35279 1.14721C6.08477 0.879202 5.65024 0.879202 5.38223 1.14721L1.01472 5.51472ZM12.5 6L12.5 5.31371L1.5 5.31371L1.5 6L1.5 6.68629L12.5 6.68629L12.5 6Z" fill="#222222"/>
</svg>
