<svg width="32" height="48" viewBox="0 0 32 48" fill="none" xmlns="http://www.w3.org/2000/svg">
<path d="M5.11559 18.4573C6.47023 25.0945 9.92405 31.1824 14.9262 35.7502L20.6993 32.4751C21.434 32.0582 22.2814 32.1151 22.9387 32.54C25.0318 33.9367 27.386 35.0292 29.9565 35.7388C30.5019 35.8894 30.9652 36.2505 31.2443 36.7426C31.5235 37.2347 31.5958 37.8176 31.4452 38.3629L29.4583 45.5604C29.3077 46.1058 28.9467 46.569 28.4546 46.8482C27.9624 47.1274 27.3796 47.1997 26.8342 47.0491C17.5625 44.4895 9.6873 38.3516 4.9411 29.9856C0.194911 21.6197 -1.03352 11.7109 1.52605 2.43922C1.67661 1.89383 2.03767 1.43058 2.52978 1.1514C3.0219 0.872209 3.60477 0.799948 4.15016 0.950511L11.3476 2.93746C11.893 3.08802 12.3562 3.44907 12.6354 3.94119C12.9146 4.43331 12.9869 5.01617 12.8363 5.56157C12.1267 8.13208 11.8567 10.7133 11.9818 13.2265C12.0093 14.0087 11.6234 14.7653 10.8886 15.1822L5.11559 18.4573Z" fill="white"/>
</svg>
