<svg width="16" height="14" viewBox="0 0 16 14" fill="none" xmlns="http://www.w3.org/2000/svg">
<path d="M1.5625 6.13309C1.08372 6.13309 0.695595 6.52122 0.695595 7C0.695595 7.47878 1.08372 7.86691 1.5625 7.86691L1.5625 6.13309ZM15.0677 7.61299C15.4062 7.27445 15.4062 6.72555 15.0677 6.387L9.55071 0.870052C9.21216 0.531504 8.66327 0.531505 8.32472 0.870052C7.98617 1.2086 7.98617 1.75749 8.32472 2.09604L13.2287 7L8.32472 11.904C7.98618 12.2425 7.98618 12.7914 8.32472 13.1299C8.66327 13.4685 9.21217 13.4685 9.55071 13.1299L15.0677 7.61299ZM1.5625 7L1.5625 7.86691L14.4547 7.8669L14.4547 7L14.4547 6.13309L1.5625 6.13309L1.5625 7Z" fill="white"/>
</svg>
