<svg width="107" height="107" viewBox="0 0 107 107" fill="none" xmlns="http://www.w3.org/2000/svg">
<g clip-path="url(#clip0_205_2010)">
<path d="M53.5 0C23.953 0 0 23.953 0 53.5C0 83.0487 23.953 107 53.5 107C83.0487 107 107 83.0487 107 53.5C107 23.953 83.0487 0 53.5 0ZM53.5 100.418C27.6879 100.418 6.6875 79.3121 6.6875 53.4998C6.6875 27.6877 27.6879 6.68729 53.5 6.68729C79.3121 6.68729 100.312 27.6878 100.312 53.4998C100.312 79.3118 79.3121 100.418 53.5 100.418ZM74.8515 33.924L43.462 65.5107L29.3263 51.375C28.0205 50.0693 25.9039 50.0693 24.5965 51.375C23.2908 52.6808 23.2908 54.7974 24.5965 56.1031L41.1464 72.6547C42.4521 73.9587 44.5687 73.9587 45.8761 72.6547C46.0266 72.5042 46.1555 72.3403 46.2725 72.1698L79.5829 38.6536C80.887 37.3479 80.887 35.2313 79.5829 33.924C78.2755 32.6183 76.1589 32.6183 74.8515 33.924Z" fill="#246EB8"/>
</g>
<defs>
<clipPath id="clip0_205_2010">
<rect width="107" height="107" fill="white"/>
</clipPath>
</defs>
</svg>
