<svg width="14" height="11" viewBox="0 0 14 11" fill="none" xmlns="http://www.w3.org/2000/svg">
<path d="M1.57812 5.10277C1.1991 5.10277 0.891837 5.41004 0.891837 5.78906C0.891837 6.16809 1.1991 6.47535 1.57813 6.47535L1.57812 5.10277ZM13.0634 6.27434C13.3314 6.00633 13.3314 5.57179 13.0634 5.30378L8.6959 0.936275C8.42788 0.668263 7.99335 0.668263 7.72534 0.936276C7.45733 1.20429 7.45733 1.63882 7.72534 1.90683L11.6076 5.78906L7.72534 9.67129C7.45733 9.9393 7.45733 10.3738 7.72534 10.6418C7.99335 10.9099 8.42788 10.9099 8.6959 10.6418L13.0634 6.27434ZM1.57812 5.78906L1.57813 6.47535L12.5781 6.47535L12.5781 5.78906L12.5781 5.10277L1.57812 5.10277L1.57812 5.78906Z" fill="#246EB8"/>
</svg>
